<svg xmlns="http://www.w3.org/2000/svg" viewBox="0 0 200 200" enable-background="new 0 0 200 200"><path fill="#fff" d="M1 37.6h58c5.1 0 10.2.7 14.5 1.5 4.4.7 8.7 2.2 12.3 4.4 3.6 2.2 6.5 5.1 8.7 9.4s2.9 9.4 2.9 15.2c0 11.6-5.8 20.3-16.7 25.4 7.3 2.2 13.1 5.8 16.7 10.9 3.6 5.1 5.8 12.3 5.8 19.6 0 5.1-.7 9.4-2.2 13.1-1.5 3.6-3.6 7.3-6.5 10.2-2.9 2.9-5.8 5.1-9.4 7.3s-7.3 2.9-11.6 4.4c-4.4 1.5-8.7 1.5-13.1 1.5H1V37.6zm26.8 49.3h27.6c5.1 0 8.7-1.5 12.3-3.6 2.2-2.2 3.6-5.8 3.6-10.9 0-9.4-5.8-13.8-18.1-13.8H27.8v28.3zm0 52.3h29c13.1 0 19.6-5.1 19.6-16 0-11.6-6.5-17.4-19.6-17.4h-29v33.4zm129.9 5c4.4 0 8-.7 11.6-2.9s6.5-5.1 7.3-8.7h21.8c-6.5 19.6-20.3 29.7-41.3 29.7-13.8 0-24.7-4.4-33.4-13.1-8-8.7-12.3-19.6-12.3-33.4s4.4-24.7 12.3-33.4c8.7-8.7 19.6-13.1 32.6-13.1 8.7 0 16.7 2.2 23.2 6.5S191.1 86 194 93.2c3.6 7.3 5.1 15.2 5.1 23.9v4.4h-63.8c0 7.3 2.2 13.1 5.8 16.7 4.2 3.9 9.3 6 16.6 6zm23.2-98.6h-49.3v12.3h49.3V45.6zm-24.7 41.3c-5.8 0-10.9 1.5-14.5 5.1-3.6 3.6-5.8 8-5.8 13.8h39.9c-1.5-12.3-8-18.9-19.6-18.9z"/></svg>