<svg xmlns="http://www.w3.org/2000/svg" viewBox="0 0 200 200" enable-background="new 0 0 200 200"><path fill="#fff" d="M144.3 69.3c0 .8 0 1.7.8 4.1.8 2.5 1.7 4.1 2.5 5.8.8 1.7 2.5 2.5 4.1 4.1 1.7.8 3.3 1.7 5 2.5s3.3.8 5.8 1.7c24 6.6 36.5 19.1 36.5 36.5 0 10.8-4.1 19.9-11.6 26.5-7.5 6.6-17.4 10.8-28.2 10.8-4.1 0-8.3-.8-12.4-1.7-4.1-1.7-7.5-3.3-9.9-5-2.5-1.7-5.8-5-8.3-8.3-2.5-3.3-5-6.6-6.6-9.9-1.7-3.3-4.1-6.6-5.8-11.6-2.5-5-3.3-8.3-5-11.6-.8-3.3-2.5-6.6-4.1-11.6-1.7-5-3.3-8.3-4.1-10.8-2.5-5.8-5-10.8-6.6-14.9-1.7-4.1-5-7.5-8.3-10.8-3.3-3.3-7.5-5-11.6-5.8-5-1.7-9.9-2.5-15.7-2.5-7.5 0-14.1 1.7-20.7 5.8S28.3 72.7 25 79.3c-4.1 6.6-5.8 13.3-5.8 19.9 0 11.6 4.1 22.4 11.6 30.7 8.3 9.1 17.4 13.3 29 13.3 13.3 0 22.4-3.3 29-10.8 4.1-5 7.5-9.1 9.1-13.3l9.1 16.6c-.8 2.5-2.5 5-5 7.5-9.9 11.6-24 16.6-43.1 16.6-10.8 0-20.7-3.3-29.8-9.1-9.1-5.8-15.7-10.8-20.7-20.7-4.9-9.3-7.4-19.2-7.4-30 0-7.5 1.7-15.7 5-23.2s7.5-14.1 12.4-19.9c5.8-5 12.4-9.9 19.1-13.3 7.5-3.3 14.9-5 23.2-5 6.6 0 12.4.8 17.4 2.5 5.8.8 9.9 2.5 14.1 5s7.5 5 10.8 9.1 5.8 7.5 8.3 10.8c2.5 3.3 4.1 8.3 6.6 13.3s4.1 9.9 5.8 14.1c1.7 4.1 3.3 9.1 5.8 14.1 2.5 5.8 4.1 9.9 5.8 14.1C142.8 136.5 151 144 161 144c5.8 0 10.8-1.7 15.7-5.8 4.1-3.3 6.6-8.3 6.6-14.1 0-3.3-.8-5.8-2.5-8.3-1.7-2.5-3.3-4.1-5.8-5s-5-2.5-8.3-3.3c-3.3-.8-6.6-1.7-9.9-2.5-3.3-.8-6.6-2.5-9.9-4.1-3.3-1.7-6.6-3.3-9.1-5.8s-5-5-7.5-9.1-3.3-8.3-4.1-13.3v-3.3c0-8.3 3.3-14.9 9.9-21.5 5.8-6.6 13.3-9.1 21.5-9.1 5.8 0 9.9.8 13.3 1.7 3.3.8 6.6 2.5 9.9 5.8l2.5 2.5c.8.8 1.7 2.5 2.5 4.1.8 1.7 1.7 2.5 2.5 3.3L174.2 67c-1.7-3.3-4.1-6.6-5.8-7.5-1.7-1.7-5-2.5-10.8-2.5-3.3 0-6.6.8-9.1 3.3-2.5 2.4-4.2 5.7-4.2 9z"/></svg>