<svg xmlns="http://www.w3.org/2000/svg" viewBox="0 0 200 200" enable-background="new 0 0 200 200"><path fill="#fff" d="M49.1 27.4c0 6.7-1.9 11.5-6.7 15.4S31.8 49.5 25 49.5c-6.7 0-12.5-1.9-17.3-6.7C2.9 39 1 33.2 1 27.4 1 20.7 2.9 15.9 7.7 12 11.6 7.2 18.3 5.3 25 5.3s12.5 1.9 17.3 5.8c3.9 4.8 5.8 9.6 6.8 16.3zm-2.9 39.4v127.8H3.9V66.8h42.3zM199 121.6v73h-42.3v-68.2c0-8.7-1.9-16.3-4.8-21.1-3.8-4.8-8.7-7.7-16.3-7.7-5.8 0-9.6 1.9-13.5 4.8-3.8 2.9-6.7 6.7-8.7 10.6-1 2.9-1 5.8-1 10.6v71.1H69.2V66.9h42.3v18.3c1.9-2.9 3.8-4.8 4.8-6.7 1-1.9 3.8-3.8 7.7-6.7s6.7-3.8 11.5-5.8c4.8-1 9.6-1.9 14.4-1.9 14.4 0 26.9 4.8 35.6 14.4 8.7 9.5 13.5 23.9 13.5 43.1z"/></svg>