<svg xmlns="http://www.w3.org/2000/svg" viewBox="0 0 200 200" enable-background="new 0 0 200 200"><path fill="#fff" d="M185.5 50c8.7 15.4 13.5 31.7 13.5 50s-4.8 34.6-13.5 50c-8.7 15.4-21.1 26.9-35.6 35.6-15.4 8.7-31.7 13.5-50 13.5s-34.6-4.8-50-13.5-26.8-21.2-35.4-35.6C5.8 134.6 1 118.3 1 100s4.8-34.6 13.5-50S35.6 23.1 50 14.5C65.4 5.8 81.7 1 100 1s34.6 4.8 50 13.5c14.4 8.6 26.9 20.1 35.5 35.5zm-13.4 30.8c0-3.8-1.9-6.7-4.8-8.7-10.6-6.7-23.1-10.6-37.5-14.4-14.4-2.9-28.8-4.8-44.2-4.8-17.3 0-33.6 1.9-47.1 5.8-1.9 1-3.8 1.9-4.8 2.9-1.9 1.9-1.9 3.8-1.9 6.7s1 4.8 2.9 6.7c1 1.9 3.8 2.9 5.8 2.9 1 0 2.9 0 4.8-1 11.5-2.9 25-4.8 39.4-4.8 13.5 0 26.9 1.9 39.4 4.8s24 6.7 32.7 12.5c1.9 1 3.8 1.9 4.8 1.9 2.9 0 4.8-1 6.7-2.9 2.8-2.8 3.8-4.7 3.8-7.6zm-13.5 31.7c0-3.8-1.9-5.8-4.8-7.7-20.2-12.5-44.2-18.3-70.2-18.3-13.5 0-26 1.9-39.4 5.8-3.8 1-5.8 3.8-5.8 8.7 0 1.9 1 3.8 1.9 5.8s2.9 1.9 5.8 1.9c1 0 1.9 0 4.8-1 10.6-2.9 21.1-3.8 32.7-3.8 24 0 45.2 5.8 62.5 16.3 1.9 1 3.8 1.9 4.8 1.9 1.9 0 3.8-1 5.8-1.9 1.9-1 1.9-5.8 1.9-7.7zm-12.5 27.9c0-2.9-1-4.8-3.8-6.7-16.3-9.6-35.6-14.4-57.7-14.4-11.5 0-24 1.9-36.5 4.8-3.8 1-5.8 2.9-5.8 6.7 0 1.9 1 2.9 1.9 4.8 1 0 2.9 1 4.8 1 0 0 1.9 0 4.8-1 11.5-1.9 22.1-3.8 31.7-3.8 19.2 0 36.5 4.8 50.9 13.5 1.9 1 2.9 1 3.8 1 1.9 0 2.9-1 3.8-1.9 1.2-1.1 2.1-2.1 2.1-4z"/></svg>