<svg xmlns="http://www.w3.org/2000/svg" viewBox="0 0 200 200" enable-background="new 0 0 200 200"><path fill="#fff" d="M147.3 158.9l9.8 28.5c-1.8 2.7-6.2 5.4-13.4 8-7.1 2.7-14.3 3.6-21.4 3.6-8 0-16.1-.9-23.2-2.7-7.1-1.8-12.5-5.4-16.9-8.9-4.5-3.6-8-8-11.6-12.5-2.7-4.5-5.4-9.8-6.2-14.3s-1.8-9.8-1.8-14.3v-65H42.9V55.4c5.4-1.8 10.7-4.5 15.2-8 4.5-3.6 8-7.1 10.7-11.6 2.7-3.6 5.4-8 7.1-12.5 1.8-4.5 3.6-8 4.5-11.6.9-2.7.9-6.2 1.8-9.8 0 0 0-.9.9-.9H113.4v50.8h40.1v30.3h-41v60.6c0 2.7 0 4.5.9 7.1 0 1.8.9 3.6 2.7 5.4.9 1.8 3.6 3.6 6.2 5.4 2.7.9 6.2 1.8 9.8 1.8 5.4 0 10.7-1.8 15.2-3.5z"/></svg>