<svg xmlns="http://www.w3.org/2000/svg" viewBox="0 0 200 200" enable-background="new 0 0 200 200"><path fill="#fff" d="M199 38.5c-5.6 8.4-12.2 15-20.6 20.6v5.6c0 11.3-1.9 21.6-4.7 32.8s-8.4 21.6-14.1 31c-5.6 9.4-14.1 18.8-23.5 26.3s-19.7 14.1-32.8 18.8-26.3 6.6-40.4 6.6c-22.5 0-43.2-5.6-61.9-17.8 2.8 0 6.6.9 9.4.9 18.8 0 35.7-5.6 50.7-16.9-8.4 0-16.9-2.8-23.5-8.4s-12.2-12.2-14.1-19.7c2.8 0 5.6.9 7.5.9 3.8 0 7.5 0 10.3-.9-9.4-1.9-16.9-6.6-23.5-14.1s-9.4-16-9.4-26.3V76c5.6 2.8 12.2 4.7 18.8 4.7-5.6-2.8-9.4-7.5-13.1-14.1-2.8-5.6-4.7-12.2-4.7-18.8 0-7.5 1.9-14.1 5.6-20.6 10.3 12.2 22.5 22.5 36.6 30s30 11.3 46.9 12.2c-.9-2.8-.9-6.6-.9-9.4 0-11.3 3.8-20.6 12.2-29.1s16.9-11.3 28.2-11.3 21.6 4.7 30 13.1c9.4-1.9 17.8-4.7 25.3-9.4-2.8 9.4-9.4 16.9-17.8 22.5 7.5-1.6 16-3.5 23.5-7.3z"/></svg>