<?xml version="1.0" encoding="utf-8"?>
<!-- Generator: Adobe Illustrator 18.1.0, SVG Export Plug-In . SVG Version: 6.00 Build 0)  -->
<!DOCTYPE svg PUBLIC "-//W3C//DTD SVG 1.1//EN" "http://www.w3.org/Graphics/SVG/1.1/DTD/svg11.dtd">
<svg version="1.1" id="Layer_1" xmlns="http://www.w3.org/2000/svg" xmlns:xlink="http://www.w3.org/1999/xlink" x="0px" y="0px"
	 viewBox="0 0 200 200" enable-background="new 0 0 200 200" xml:space="preserve">
<g>
	<path fill="#FFFFFF" d="M1,37.6h58c5.1,0,10.2,0.7,14.5,1.5c4.4,0.7,8.7,2.2,12.3,4.4c3.6,2.2,6.5,5.1,8.7,9.4s2.9,9.4,2.9,15.2
		c0,11.6-5.8,20.3-16.7,25.4c7.3,2.2,13.1,5.8,16.7,10.9c3.6,5.1,5.8,12.3,5.8,19.6c0,5.1-0.7,9.4-2.2,13.1
		c-1.5,3.6-3.6,7.3-6.5,10.2c-2.9,2.9-5.8,5.1-9.4,7.3s-7.3,2.9-11.6,4.4c-4.4,1.5-8.7,1.5-13.1,1.5H1V37.6z M27.8,86.9h27.6
		c5.1,0,8.7-1.5,12.3-3.6c2.2-2.2,3.6-5.8,3.6-10.9c0-9.4-5.8-13.8-18.1-13.8H27.8V86.9z M27.8,139.2h29c13.1,0,19.6-5.1,19.6-16
		c0-11.6-6.5-17.4-19.6-17.4h-29V139.2L27.8,139.2z M157.7,144.2c4.4,0,8-0.7,11.6-2.9s6.5-5.1,7.3-8.7h21.8
		c-6.5,19.6-20.3,29.7-41.3,29.7c-13.8,0-24.7-4.4-33.4-13.1c-8-8.7-12.3-19.6-12.3-33.4s4.4-24.7,12.3-33.4
		c8.7-8.7,19.6-13.1,32.6-13.1c8.7,0,16.7,2.2,23.2,6.5s11.6,10.2,14.5,17.4c3.6,7.3,5.1,15.2,5.1,23.9c0,1.5,0,2.9,0,4.4h-63.8
		c0,7.3,2.2,13.1,5.8,16.7C145.3,142.1,150.4,144.2,157.7,144.2z M180.9,45.6h-49.3v12.3h49.3V45.6z M156.2,86.9
		c-5.8,0-10.9,1.5-14.5,5.1c-3.6,3.6-5.8,8-5.8,13.8h39.9C174.3,93.5,167.8,86.9,156.2,86.9z"/>
</g>
</svg>
