<?xml version="1.0" encoding="utf-8"?>
<!-- Generator: Adobe Illustrator 18.1.0, SVG Export Plug-In . SVG Version: 6.00 Build 0)  -->
<!DOCTYPE svg PUBLIC "-//W3C//DTD SVG 1.1//EN" "http://www.w3.org/Graphics/SVG/1.1/DTD/svg11.dtd">
<svg version="1.1" id="Layer_1" xmlns="http://www.w3.org/2000/svg" xmlns:xlink="http://www.w3.org/1999/xlink" x="0px" y="0px"
	 viewBox="0 0 200 200" enable-background="new 0 0 200 200" xml:space="preserve">
<g>
	<path fill="#FFFFFF" d="M162.3,1c10.6,0,19.3,3.9,26.1,10.6C196.1,19.4,199,28,199,37.7v124.6c0,10.6-3.9,19.3-10.6,26.1
		c-7.7,7.7-16.4,10.6-26.1,10.6H38.7c-10.6,0-19.3-3.9-26.1-10.6C4.9,181.6,1,172.9,1,162.3V38.7C1,28,4.9,19.4,11.6,12.6
		C19.4,4.9,28,1,38.7,1H162.3z M83.1,119.8c5.8-5.8,7.7-11.6,7.7-19.3S87.9,86,83.1,81.2c-4.8-5.8-11.6-8.7-19.3-8.7
		s-14.5,2.9-19.3,7.7c-5.8,5.8-7.7,11.6-7.7,19.3s2.9,14.5,7.7,19.3c4.8,4.8,11.6,7.7,19.3,7.7S78.3,124.6,83.1,119.8z M156.5,119.8
		c5.8-5.8,7.7-11.6,7.7-19.3s-2.9-14.5-7.7-19.3c-5.8-5.8-11.6-7.7-19.3-7.7c-7.7,0-14.5,2.9-19.3,7.7c-5.8,5.8-7.7,11.6-7.7,19.3
		s2.9,14.5,7.7,19.3c5.8,5.8,11.6,7.7,19.3,7.7C144.9,127.5,150.7,124.6,156.5,119.8z"/>
</g>
</svg>
