<?xml version="1.0" encoding="utf-8"?>
<!-- Generator: Adobe Illustrator 18.1.0, SVG Export Plug-In . SVG Version: 6.00 Build 0)  -->
<!DOCTYPE svg PUBLIC "-//W3C//DTD SVG 1.1//EN" "http://www.w3.org/Graphics/SVG/1.1/DTD/svg11.dtd">
<svg version="1.1" id="Layer_1" xmlns="http://www.w3.org/2000/svg" xmlns:xlink="http://www.w3.org/1999/xlink" x="0px" y="0px"
	 viewBox="0 0 200 200" enable-background="new 0 0 200 200" xml:space="preserve">
<g>
	<path fill="#FFFFFF" d="M199,102.5c0,21.1-6.7,41.3-19.2,57.7c-12.5,16.3-28.8,28.8-49,35.6c-1.9,0-3.8,0-4.8-1s-1.9-1.9-1.9-3.8
		V164c0-8.7-1.9-14.4-6.7-18.3c4.8-1,9.6-1,13.5-1.9c3.8-1,7.7-2.9,12.5-4.8c3.8-1.9,7.7-4.8,10.6-8.7c2.9-3.8,4.8-7.7,6.7-13.5
		c1.9-5.8,2.9-12.5,2.9-19.2c0-10.6-3.8-19.2-10.6-26.9c2.9-7.7,2.9-16.3-1-26c-1.9-1-5.8,0-10.6,1c-4.8,1-8.7,3.8-11.5,5.8
		l-4.8,2.9c-8.7-1.9-16.3-2.9-25-2.9s-17.3,1-25,2.9c-1-1-2.9-1.9-5.8-2.9c-1.9-1.9-5.8-3.8-10.6-5.8c-4.8-1.9-8.7-1.9-10.6-1
		c-3.8,9.6-3.8,18.3-1,26c-6.7,7.7-10.6,16.3-10.6,26.9c0,7.7,1,13.5,2.9,19.2c1.9,5.8,3.8,9.6,6.7,13.5c2.9,3.8,5.8,6.7,10.6,8.7
		c3.8,1.9,8.7,3.8,12.5,4.8s8.7,1.9,13.5,1.9c-3.8,2.9-5.8,7.7-6.7,13.5c-1.9,1-3.8,1.9-5.8,1.9c-1.9,0-4.8,1-7.7,1s-5.8-1-8.7-2.9
		c-2.9-1.9-4.8-4.8-6.7-8.7c-1.9-2.9-3.8-4.8-5.8-6.7c-2.9-1.9-4.8-2.9-6.7-2.9h-2.9c-1.9,0-2.9,0-3.8,1c-1,0-1,1-1,1.9
		c0,1,1,1,1,1.9c1,0,1.9,0,1.9,1l1,1c1.9,1,3.8,2.9,5.8,4.8c1.9,1.9,2.9,4.8,3.8,6.7l1,2.9c1,2.9,2.9,5.8,5.8,7.7
		c2.9,1.9,5.8,2.9,8.7,3.8c2.9,1,5.8,1,8.7,1c2.9,0,4.8,0,6.7,0l2.9-1c0,2.9,0,6.7,0,11.5c0,4.8,0,6.7,0,6.7c0,1.9-1,2.9-1.9,3.8
		c-1,1-1,1-3.8,0c-19.2-5.8-35.6-18.3-48.1-35.6S1,123.7,1,102.5c0-18.3,4.8-34.6,13.5-50S35.6,25.6,50,17
		C65.4,8.3,81.7,3.5,100,3.5s34.6,4.8,50,13.5s26.9,21.1,35.6,35.6C194.2,67.9,199,84.3,199,102.5z"/>
</g>
</svg>
