<?xml version="1.0" encoding="utf-8"?>
<!-- Generator: Adobe Illustrator 18.1.0, SVG Export Plug-In . SVG Version: 6.00 Build 0)  -->
<!DOCTYPE svg PUBLIC "-//W3C//DTD SVG 1.1//EN" "http://www.w3.org/Graphics/SVG/1.1/DTD/svg11.dtd">
<svg version="1.1" id="Layer_1" xmlns="http://www.w3.org/2000/svg" xmlns:xlink="http://www.w3.org/1999/xlink" x="0px" y="0px"
	 viewBox="0 0 200 200" enable-background="new 0 0 200 200" xml:space="preserve">
<g>
	<path fill="#FFFFFF" d="M144.3,69.3c0,0.8,0,1.7,0.8,4.1c0.8,2.5,1.7,4.1,2.5,5.8c0.8,1.7,2.5,2.5,4.1,4.1c1.7,0.8,3.3,1.7,5,2.5
		s3.3,0.8,5.8,1.7c24,6.6,36.5,19.1,36.5,36.5c0,10.8-4.1,19.9-11.6,26.5c-7.5,6.6-17.4,10.8-28.2,10.8c-4.1,0-8.3-0.8-12.4-1.7
		c-4.1-1.7-7.5-3.3-9.9-5c-2.5-1.7-5.8-5-8.3-8.3c-2.5-3.3-5-6.6-6.6-9.9c-1.7-3.3-4.1-6.6-5.8-11.6c-2.5-5-3.3-8.3-5-11.6
		c-0.8-3.3-2.5-6.6-4.1-11.6c-1.7-5-3.3-8.3-4.1-10.8c-2.5-5.8-5-10.8-6.6-14.9c-1.7-4.1-5-7.5-8.3-10.8c-3.3-3.3-7.5-5-11.6-5.8
		c-5-1.7-9.9-2.5-15.7-2.5c-7.5,0-14.1,1.7-20.7,5.8S28.3,72.7,25,79.3c-4.1,6.6-5.8,13.3-5.8,19.9c0,11.6,4.1,22.4,11.6,30.7
		c8.3,9.1,17.4,13.3,29,13.3c13.3,0,22.4-3.3,29-10.8c4.1-5,7.5-9.1,9.1-13.3l9.1,16.6c-0.8,2.5-2.5,5-5,7.5l0,0
		c-9.9,11.6-24,16.6-43.1,16.6c-10.8,0-20.7-3.3-29.8-9.1c-9.1-5.8-15.7-10.8-20.7-20.7C3.5,120.7,1,110.8,1,100
		c0-7.5,1.7-15.7,5-23.2c3.3-7.5,7.5-14.1,12.4-19.9c5.8-5,12.4-9.9,19.1-13.3c7.5-3.3,14.9-5,23.2-5c6.6,0,12.4,0.8,17.4,2.5
		c5.8,0.8,9.9,2.5,14.1,5s7.5,5,10.8,9.1s5.8,7.5,8.3,10.8c2.5,3.3,4.1,8.3,6.6,13.3s4.1,9.9,5.8,14.1c1.7,4.1,3.3,9.1,5.8,14.1
		c2.5,5.8,4.1,9.9,5.8,14.1c7.5,14.9,15.7,22.4,25.7,22.4c5.8,0,10.8-1.7,15.7-5.8c4.1-3.3,6.6-8.3,6.6-14.1c0-3.3-0.8-5.8-2.5-8.3
		c-1.7-2.5-3.3-4.1-5.8-5s-5-2.5-8.3-3.3c-3.3-0.8-6.6-1.7-9.9-2.5c-3.3-0.8-6.6-2.5-9.9-4.1c-3.3-1.7-6.6-3.3-9.1-5.8
		c-2.5-2.5-5-5-7.5-9.1c-2.5-4.1-3.3-8.3-4.1-13.3c0-0.8,0-2.5,0-3.3c0-8.3,3.3-14.9,9.9-21.5c5.8-6.6,13.3-9.1,21.5-9.1
		c5.8,0,9.9,0.8,13.3,1.7c3.3,0.8,6.6,2.5,9.9,5.8l0,0c0.8,0.8,1.7,1.7,2.5,2.5c0.8,0.8,1.7,2.5,2.5,4.1c0.8,1.7,1.7,2.5,2.5,3.3
		l-14.1,10.8c-1.7-3.3-4.1-6.6-5.8-7.5l0,0c-1.7-1.7-5-2.5-10.8-2.5c-3.3,0-6.6,0.8-9.1,3.3C146,62.7,144.3,66,144.3,69.3z"/>
</g>
</svg>
