<?xml version="1.0" encoding="utf-8"?>
<!-- Generator: Adobe Illustrator 18.1.0, SVG Export Plug-In . SVG Version: 6.00 Build 0)  -->
<!DOCTYPE svg PUBLIC "-//W3C//DTD SVG 1.1//EN" "http://www.w3.org/Graphics/SVG/1.1/DTD/svg11.dtd">
<svg version="1.1" id="Layer_1" xmlns="http://www.w3.org/2000/svg" xmlns:xlink="http://www.w3.org/1999/xlink" x="0px" y="0px"
	 viewBox="0 0 200 200" enable-background="new 0 0 200 200" xml:space="preserve">
<g>
	<path fill="#FFFFFF" d="M49.1,27.4c0,6.7-1.9,11.5-6.7,15.4S31.8,49.5,25,49.5l0,0c-6.7,0-12.5-1.9-17.3-6.7C2.9,39,1,33.2,1,27.4
		c0-6.7,1.9-11.5,6.7-15.4C11.6,7.2,18.3,5.3,25,5.3s12.5,1.9,17.3,5.8C46.2,15.9,48.1,20.7,49.1,27.4z M46.2,66.8v127.8H3.9V66.8
		H46.2z M199,121.6v73h-42.3v-68.2c0-8.7-1.9-16.3-4.8-21.1c-3.8-4.8-8.7-7.7-16.3-7.7c-5.8,0-9.6,1.9-13.5,4.8
		c-3.8,2.9-6.7,6.7-8.7,10.6c-1,2.9-1,5.8-1,10.6v71.1H69.2c0-34.6,0-62.5,0-83.6s0-33.6,0-38.4v-5.8h42.3v18.3l0,0
		c1.9-2.9,3.8-4.8,4.8-6.7c1-1.9,3.8-3.8,7.7-6.7s6.7-3.8,11.5-5.8c4.8-1,9.6-1.9,14.4-1.9c14.4,0,26.9,4.8,35.6,14.4
		C194.2,88,199,102.4,199,121.6z"/>
</g>
</svg>
