<?xml version="1.0" encoding="utf-8"?>
<!-- Generator: Adobe Illustrator 18.1.0, SVG Export Plug-In . SVG Version: 6.00 Build 0)  -->
<!DOCTYPE svg PUBLIC "-//W3C//DTD SVG 1.1//EN" "http://www.w3.org/Graphics/SVG/1.1/DTD/svg11.dtd">
<svg version="1.1" id="Layer_1" xmlns="http://www.w3.org/2000/svg" xmlns:xlink="http://www.w3.org/1999/xlink" x="0px" y="0px"
	 viewBox="0 0 200 200" enable-background="new 0 0 200 200" xml:space="preserve">
<g>
	<path fill="#FFFFFF" d="M185.5,50c8.7,15.4,13.5,31.7,13.5,50s-4.8,34.6-13.5,50c-8.7,15.4-21.1,26.9-35.6,35.6
		c-15.4,8.7-31.7,13.5-50,13.5s-34.6-4.8-50-13.5S23.1,164.4,14.5,150C5.8,134.6,1,118.3,1,100s4.8-34.6,13.5-50S35.6,23.1,50,14.5
		C65.4,5.8,81.7,1,100,1s34.6,4.8,50,13.5C164.4,23.1,176.9,34.6,185.5,50z M172.1,80.8c0-3.8-1.9-6.7-4.8-8.7
		c-10.6-6.7-23.1-10.6-37.5-14.4c-14.4-2.9-28.8-4.8-44.2-4.8c-17.3,0-33.6,1.9-47.1,5.8c-1.9,1-3.8,1.9-4.8,2.9
		c-1.9,1.9-1.9,3.8-1.9,6.7s1,4.8,2.9,6.7c1,1.9,3.8,2.9,5.8,2.9c1,0,2.9,0,4.8-1c11.5-2.9,25-4.8,39.4-4.8
		c13.5,0,26.9,1.9,39.4,4.8c12.5,2.9,24,6.7,32.7,12.5c1.9,1,3.8,1.9,4.8,1.9c2.9,0,4.8-1,6.7-2.9C171.1,85.6,172.1,83.7,172.1,80.8
		z M158.6,112.5c0-3.8-1.9-5.8-4.8-7.7c-20.2-12.5-44.2-18.3-70.2-18.3c-13.5,0-26,1.9-39.4,5.8c-3.8,1-5.8,3.8-5.8,8.7
		c0,1.9,1,3.8,1.9,5.8s2.9,1.9,5.8,1.9c1,0,1.9,0,4.8-1c10.6-2.9,21.1-3.8,32.7-3.8c24,0,45.2,5.8,62.5,16.3c1.9,1,3.8,1.9,4.8,1.9
		c1.9,0,3.8-1,5.8-1.9C158.6,119.2,158.6,114.4,158.6,112.5z M146.1,140.4c0-2.9-1-4.8-3.8-6.7c-16.3-9.6-35.6-14.4-57.7-14.4
		c-11.5,0-24,1.9-36.5,4.8c-3.8,1-5.8,2.9-5.8,6.7c0,1.9,1,2.9,1.9,4.8c1,0,2.9,1,4.8,1c0,0,1.9,0,4.8-1c11.5-1.9,22.1-3.8,31.7-3.8
		c19.2,0,36.5,4.8,50.9,13.5c1.9,1,2.9,1,3.8,1c1.9,0,2.9-1,3.8-1.9C145.2,143.3,146.1,142.3,146.1,140.4z"/>
</g>
</svg>
