<?xml version="1.0" encoding="utf-8"?>
<!-- Generator: Adobe Illustrator 18.1.0, SVG Export Plug-In . SVG Version: 6.00 Build 0)  -->
<!DOCTYPE svg PUBLIC "-//W3C//DTD SVG 1.1//EN" "http://www.w3.org/Graphics/SVG/1.1/DTD/svg11.dtd">
<svg version="1.1" id="Layer_1" xmlns="http://www.w3.org/2000/svg" xmlns:xlink="http://www.w3.org/1999/xlink" x="0px" y="0px"
	 viewBox="0 0 200 200" enable-background="new 0 0 200 200" xml:space="preserve">
<g>
	<path fill="#FFFFFF" d="M147.3,158.9l9.8,28.5c-1.8,2.7-6.2,5.4-13.4,8c-7.1,2.7-14.3,3.6-21.4,3.6c-8,0-16.1-0.9-23.2-2.7
		c-7.1-1.8-12.5-5.4-16.9-8.9c-4.5-3.6-8-8-11.6-12.5c-2.7-4.5-5.4-9.8-6.2-14.3s-1.8-9.8-1.8-14.3V81.3H42.9V55.4
		c5.4-1.8,10.7-4.5,15.2-8c4.5-3.6,8-7.1,10.7-11.6c2.7-3.6,5.4-8,7.1-12.5c1.8-4.5,3.6-8,4.5-11.6c0.9-2.7,0.9-6.2,1.8-9.8
		c0,0,0-0.9,0.9-0.9h0.9h29.4v50.8h40.1v30.3h-41v60.6c0,2.7,0,4.5,0.9,7.1c0,1.8,0.9,3.6,2.7,5.4c0.9,1.8,3.6,3.6,6.2,5.4
		c2.7,0.9,6.2,1.8,9.8,1.8C137.5,162.4,142.8,160.6,147.3,158.9z"/>
</g>
</svg>
